PathFileType	4	(X/Y/Z)	/Users/itak/Documents/Research/Walk-IL/dataset/trc/00492_00167.trc
DataRate	CameraRate	NumFrames	NumMarkers	Units	OrigDataRate	OrigDataStartFrame	OrigNumFrames
100.000000	100.000000	4	53	mm	100.000000	414	552
Frame#	Time	RPSI			LPSI			L3			STRN			T10			C7			CLAV			RBAK			LBAK			LSHO			LUPA			LAEL			LAOL			LWTS			LWPS			LFRA			LIFD			LHPS			LHTS			RSHO			RUPA			RAEL			RAOL			RWTS			RWPS			RFRA			RIFD			RHTS			RHPS			RBHD			LFHD			RFHD			LBHD			LHIP			RHIP			RASI			LASI			LKNE			LTHI			LANK			LTIP			LTOE			LMT1			LMT5			LHEE			RKNE			RTHI			RANK			RTIP			RTOE			RMT1			RMT5			RHEE			
		X1	Y1	Z1	X2	Y2	Z2	X3	Y3	Z3	X4	Y4	Z4	X5	Y5	Z5	X6	Y6	Z6	X7	Y7	Z7	X8	Y8	Z8	X9	Y9	Z9	X10	Y10	Z10	X11	Y11	Z11	X12	Y12	Z12	X13	Y13	Z13	X14	Y14	Z14	X15	Y15	Z15	X16	Y16	Z16	X17	Y17	Z17	X18	Y18	Z18	X19	Y19	Z19	X20	Y20	Z20	X21	Y21	Z21	X22	Y22	Z22	X23	Y23	Z23	X24	Y24	Z24	X25	Y25	Z25	X26	Y26	Z26	X27	Y27	Z27	X28	Y28	Z28	X29	Y29	Z29	X30	Y30	Z30	X31	Y31	Z31	X32	Y32	Z32	X33	Y33	Z33	X34	Y34	Z34	X35	Y35	Z35	X36	Y36	Z36	X37	Y37	Z37	X38	Y38	Z38	X39	Y39	Z39	X40	Y40	Z40	X41	Y41	Z41	X42	Y42	Z42	X43	Y43	Z43	X44	Y44	Z44	X45	Y45	Z45	X46	Y46	Z46	X47	Y47	Z47	X48	Y48	Z48	X49	Y49	Z49	X50	Y50	Z50	X51	Y51	Z51	X52	Y52	Z52	X53	Y53	Z53	

415	4.14	499.4341430664062	956.0537109375	-154.7422332763672	356.0025634765625	957.8221435546875	-148.4157257080078	455.1758117675781	1060.781860351562	-175.1171417236328	408.8990783691406	1245.740844726562	-456.0216369628906	463.0135803222656	1185.370239257812	-170.519775390625	468.0528869628906	1450.446044921875	-251.0311889648438	413.0683898925781	1360.243286132812	-424.72900390625	573.265625	1329.683837890625	-207.484375	378.7540283203125	1407.561401367188	-195.457275390625	279.2360229492188	1427.315673828125	-278.8988037109375	184.4766082763672	1313.468017578125	-239.7113647460938	135.6450958251953	1101.609741210938	-243.2031860351562	219.5296325683594	1080.132934570312	-185.9544982910156	156.7072448730469	913.752685546875	-360.2424926757812	111.6324081420898	891.0199584960938	-305.3720397949219	119.1599884033203	1017.128295898438	-272.931640625	148.7061462402344	754.3638916015625	-390.6832275390625	108.7690200805664	815.3450927734375	-327.1448669433594	144.0909576416016	832.3057861328125	-388.499267578125	604.7227783203125	1415.464599609375	-350.7376098632812	684.1144409179688	1360.711791992188	-353.2291564941406	777.4842529296875	1095.975341796875	-407.1315307617188	751.5238037109375	1056.035278320312	-358.5744018554688	721.39111328125	946.0197143554688	-574.5936279296875	790.70556640625	912.7761840820312	-532.304443359375	788.7376708984375	1044.245361328125	-435.6890563964844	738.5791625976562	810.9683227539062	-650.3793334960938	737.8463134765625	870.6507568359375	-636.4237060546875	790.4364624023438	842.5797119140625	-587.303955078125	531.3668212890625	1645.896850585938	-375.7063598632812	341.496826171875	1648.655517578125	-456.9953002929688	465.8547058105469	1649.197875976562	-497.0735473632812	368.4792175292969	1651.4921875	-306.4413757324219	224.0873870849609	870.712158203125	-293.8102722167969	624.5677490234375	846.2529907226562	-279.9771118164062	558.6986694335938	892.163818359375	-378.7005004882812	308.129150390625	907.8094482421875	-379.7269287109375	229.673095703125	469.3993530273438	-441.4913024902344	215.9928131103516	627.2745971679688	-422.8846435546875	229.3400115966797	82.36498260498047	-259.8854064941406	215.7946014404297	318.847900390625	-392.7322387695312	300.1223449707031	59.79049301147461	-488.217041015625	329.2953491210938	68.30368041992188	-412.27294921875	219.8709564208984	65.55517578125	-409.7047119140625	294.4095458984375	95.74008941650391	-218.2842102050781	581.6427612304688	461.7545776367188	-350.7091979980469	624.91259765625	718.6961669921875	-337.8884582519531	574.0464477539062	38.4454345703125	-273.6945190429688	585.7559814453125	315.6448364257812	-349.2575073242188	526.8648071289062	40.81710052490234	-494.8455810546875	493.3803405761719	49.34509658813477	-428.013671875	602.0073852539062	39.11275482177734	-405.4565734863281	527.3844604492188	35.46701812744141	-209.7569274902344	
416	4.15	499.0036315917969	956.4019775390625	-157.9074401855469	355.6092224121094	958.4402465820312	-152.2277069091797	454.8806457519531	1061.0859375	-178.3830108642578	409.5389099121094	1246.479614257812	-458.7770385742188	462.8841247558594	1185.576171875	-173.2779998779297	467.7725219726562	1450.83203125	-253.1919555664062	413.3830261230469	1360.8935546875	-427.2262268066406	573.1342163085938	1330.1640625	-209.6495971679688	378.3768615722656	1407.71142578125	-197.9451751708984	279.0434875488281	1427.379028320312	-281.6592712402344	184.4600982666016	1313.187866210938	-243.1183624267578	136.5321655273438	1101.022705078125	-247.4813232421875	220.0476531982422	1079.870849609375	-189.4611053466797	159.6705017089844	913.328369140625	-364.5446166992188	114.0730133056641	890.3458251953125	-310.1902465820312	120.7843933105469	1016.505065917969	-277.49560546875	153.1596984863281	753.8802490234375	-395.0653381347656	112.0279693603516	814.6356201171875	-332.0412902832031	148.0302429199219	831.7938232421875	-392.9730834960938	604.7576293945312	1416.353759765625	-352.66552734375	684.2409057617188	1361.67822265625	-355.2339172363281	777.386474609375	1097.20703125	-410.5351867675781	751.7380981445312	1056.692504882812	-362.2685852050781	718.623779296875	950.376708984375	-579.7626953125	788.3793334960938	915.9779663085938	-538.9966430664062	788.072265625	1045.799438476562	-440.0311889648438	734.2275390625	816.6170654296875	-658.4078369140625	734.0349731445312	876.1326904296875	-643.2645263671875	787.1364135742188	846.9664306640625	-595.425537109375	531.142333984375	1646.491088867188	-377.8861083984375	341.0888061523438	1649.250854492188	-458.7676086425781	465.3569641113281	1649.918334960938	-499.0789794921875	368.4111022949219	1651.926635742188	-308.2623291015625	224.34814453125	871.2723999023438	-298.0326538085938	624.6300048828125	846.5076293945312	-282.3777160644531	559.2858276367188	892.3735961914062	-381.4504089355469	308.6651306152344	908.435791015625	-383.9500732421875	231.4047241210938	468.8128051757812	-442.7843017578125	217.4761047363281	626.5481567382812	-424.8774108886719	226.9988708496094	77.25444793701172	-272.7551879882812	216.1048889160156	317.5332946777344	-398.373046875	298.0875244140625	61.43461990356445	-501.666259765625	327.3360900878906	67.05029296875	-425.3511657714844	217.7564849853516	65.72000885009766	-423.1497497558594	292.1003112792969	88.3492431640625	-230.3912506103516	581.7951049804688	461.6909484863281	-350.9183654785156	624.8787231445312	718.8049926757812	-339.8299255371094	574.01611328125	38.42469024658203	-273.6492919921875	585.9868774414062	315.6669311523438	-349.2182922363281	526.86279296875	40.81864166259766	-494.8025512695312	493.3351440429688	49.31440734863281	-428.0348205566406	602.0116577148438	39.08443450927734	-405.4402160644531	527.3082275390625	35.42141342163086	-209.7233276367188	
417	4.16	498.3990173339844	956.7183837890625	-161.0502014160156	355.0301513671875	958.9584350585938	-156.0604858398438	454.3702087402344	1061.288818359375	-181.6377258300781	410.1604919433594	1247.16845703125	-461.4715270996094	462.5000305175781	1185.695678710938	-175.9455871582031	467.29052734375	1451.142822265625	-255.2191467285156	413.6324462890625	1361.479125976562	-429.6297912597656	572.773193359375	1330.544921875	-211.6113433837891	377.7412719726562	1407.782470703125	-200.3798065185547	278.6757202148438	1427.367797851562	-284.4588928222656	184.2268218994141	1312.8408203125	-246.6823272705078	137.2281494140625	1100.352661132812	-251.9010009765625	220.331298828125	1079.574584960938	-193.0495147705078	162.4634246826172	912.7169799804688	-368.7733764648438	116.3999862670898	889.5274658203125	-314.9075012207031	122.2398529052734	1015.762023925781	-282.1170959472656	157.3870697021484	753.1971435546875	-399.1838073730469	115.1464767456055	813.7701416015625	-336.7120056152344	151.7419281005859	831.0533447265625	-397.2572631835938	604.6891479492188	1417.192749023438	-354.3219604492188	684.2628784179688	1362.591552734375	-356.88671875	777.1552124023438	1098.323974609375	-413.5159606933594	751.7487182617188	1057.294677734375	-365.5459289550781	715.7426147460938	954.5320434570312	-584.3479614257812	785.9091186523438	919.0267944335938	-545.0641479492188	787.2617797851562	1047.240356445312	-443.8917236328125	729.8062744140625	822.1222534179688	-665.7277221679688	729.9657592773438	881.2803344726562	-649.3099365234375	783.6243286132812	851.159423828125	-602.7894287109375	530.810302734375	1647.031982421875	-379.919189453125	340.6007385253906	1649.769409179688	-460.4359741210938	464.7854919433594	1650.580078125	-500.952880859375	368.2138671875	1652.28515625	-309.9935607910156	224.5290832519531	871.6297607421875	-302.2935485839844	624.6133422851562	846.7582397460938	-284.6944580078125	559.8069458007812	892.556640625	-384.1611633300781	309.1444091796875	908.872802734375	-388.1932373046875	233.0811614990234	468.0245666503906	-443.7463989257812	218.966552734375	625.585205078125	-426.7412414550781	224.7330169677734	72.62059020996094	-284.5986328125	216.3712310791016	316.2599487304688	-403.368896484375	296.2879333496094	62.9216423034668	-513.7744140625	325.5706481933594	65.91042327880859	-437.2283020019531	215.8513031005859	65.85513305664062	-435.3797607421875	289.8354797363281	81.61317443847656	-241.573974609375	581.9284057617188	461.6354370117188	-351.118408203125	624.8546142578125	718.8904418945312	-341.6602172851562	573.9965209960938	38.39130401611328	-273.5996398925781	586.2216186523438	315.6961975097656	-349.1717224121094	526.8514404296875	40.8139533996582	-494.7555236816406	493.2877807617188	49.28535842895508	-428.0557556152344	602.0187377929688	39.05374145507812	-405.4191284179688	527.2318725585938	35.36539459228516	-209.6838684082031	
418	4.17	497.6340942382812	957.0015869140625	-164.1704864501953	354.2744140625	959.36083984375	-159.90673828125	453.6460571289062	1061.377075195312	-184.8732147216797	410.7510070800781	1247.791137695312	-464.1036682128906	461.8579406738281	1185.718383789062	-178.5296630859375	466.5954284667969	1451.3681640625	-257.1210327148438	413.817626953125	1361.991088867188	-431.9456176757812	572.1747436523438	1330.814086914062	-213.3733062744141	376.8451232910156	1407.760009765625	-202.7702331542969	278.1278686523438	1427.275634765625	-287.2993774414062	183.7763519287109	1312.421630859375	-250.383056640625	137.7376098632812	1099.592407226562	-256.4424133300781	220.3854675292969	1079.23779296875	-196.7196197509766	165.0774230957031	911.9251708984375	-372.9291687011719	118.5973968505859	888.5672607421875	-319.5244750976562	123.5169296264648	1014.899108886719	-286.77685546875	161.3928680419922	752.31689453125	-403.0534973144531	118.1138000488281	812.7457275390625	-341.1615905761719	155.2127075195312	830.084716796875	-401.3509216308594	604.5137939453125	1417.9638671875	-355.7111511230469	684.1762084960938	1363.43408203125	-358.1876831054688	776.7962646484375	1099.304077148438	-416.0876770019531	751.5568237304688	1057.82275390625	-368.4164123535156	712.7991333007812	958.4585571289062	-588.3790893554688	783.3169555664062	921.8856201171875	-550.5054931640625	786.3186645507812	1048.546630859375	-447.2796020507812	725.3264770507812	827.4058227539062	-672.3252563476562	725.6738891601562	886.0316772460938	-654.5682373046875	779.9246215820312	855.087890625	-609.3850708007812	530.3735961914062	1647.508544921875	-381.8030700683594	340.041259765625	1650.20458984375	-462.00732421875	464.1460266113281	1651.167724609375	-502.6995544433594	367.8873291015625	1652.559692382812	-311.6360473632812	224.6308898925781	871.7695922851562	-306.5703430175781	624.5205078125	847.005859375	-286.9340209960938	560.254638671875	892.7075805664062	-386.8363647460938	309.5360717773438	909.104736328125	-392.4470520019531	234.6853790283203	467.0456237792969	-444.4419555664062	220.4281463623047	624.4026489257812	-428.4656677246094	222.5871276855469	68.39504241943359	-295.3816223144531	216.6145172119141	314.9950561523438	-407.7783508300781	294.9224243164062	64.11998748779297	-524.5133056640625	324.1295166015625	64.827880859375	-447.8153686523438	214.2877807617188	65.79366302490234	-446.3974914550781	287.61865234375	75.5535888671875	-251.7394409179688	582.0307006835938	461.5810546875	-351.3166198730469	624.8487548828125	718.9437255859375	-343.3757629394531	573.9893188476562	38.34215927124023	-273.5416870117188	586.4515991210938	315.722900390625	-349.1247253417969	526.8300170898438	40.8021354675293	-494.703125	493.2470092773438	49.26537322998047	-428.0702819824219	602.028564453125	39.02402114868164	-405.3914184570312	527.1572265625	35.29394912719727	-209.6363830566406	
